<?xml version="1.0" standalone="no"?>
<!DOCTYPE svg PUBLIC "-//W3C//DTD SVG 20010904//EN"
 "http://www.w3.org/TR/2001/REC-SVG-20010904/DTD/svg10.dtd">
<svg version="1.0" xmlns="http://www.w3.org/2000/svg"
 width="533.000000pt" height="533.000000pt" viewBox="0 0 533.000000 533.000000"
 preserveAspectRatio="xMidYMid meet">
<metadata>
Created by potrace 1.11, written by Peter Selinger 2001-2013
</metadata>
<g transform="translate(0.000000,533.000000) scale(0.100000,-0.100000)"
fill="#000000" stroke="none">
<path d="M2612 5243 c-16 -17 -35 -17 -27 0 4 6 -3 1 -15 -13 -12 -14 -18 -18
-14 -10 5 10 0 9 -14 -4 -14 -12 -22 -14 -22 -7 0 7 -5 9 -11 6 -6 -4 -26 -7
-45 -7 -19 0 -34 -5 -34 -10 0 -6 -8 -4 -17 3 -9 8 -14 9 -10 2 10 -16 -12
-22 -46 -12 -20 6 -30 4 -33 -6 -3 -8 -12 -11 -20 -8 -8 3 -21 0 -28 -6 -11
-9 -16 -9 -22 0 -5 9 -10 9 -18 -2 -11 -14 -20 -16 -78 -21 -15 -2 -30 -9 -33
-16 -3 -10 -10 -10 -25 -2 -17 9 -19 8 -13 -7 6 -16 5 -16 -10 -4 -15 12 -17
12 -11 -4 5 -13 4 -16 -4 -11 -7 4 -12 2 -12 -5 0 -8 -5 -7 -17 2 -9 8 -14 10
-11 4 3 -5 0 -15 -7 -22 -11 -10 -15 -10 -18 0 -4 9 -6 9 -6 -1 -1 -7 -6 -10
-13 -6 -8 5 -9 2 -4 -12 4 -10 4 -16 1 -12 -4 3 -18 0 -32 -7 -15 -8 -30 -12
-35 -9 -4 3 -8 0 -8 -5 0 -6 -6 -11 -14 -11 -8 0 -16 -5 -18 -10 -2 -6 -13
-12 -25 -13 -13 0 -25 -7 -28 -15 -2 -7 0 -10 5 -7 16 10 11 -1 -7 -16 -11
-10 -14 -10 -9 -1 4 6 2 12 -3 12 -6 0 -11 -5 -11 -11 0 -6 -9 -8 -22 -4 -16
6 -20 4 -15 -8 4 -11 1 -15 -14 -12 -10 2 -19 -1 -19 -7 0 -5 -7 -7 -16 -4
-10 4 -13 2 -8 -6 5 -7 2 -9 -8 -5 -9 3 -26 -2 -39 -10 -12 -9 -19 -11 -15 -5
4 7 2 12 -3 12 -6 0 -11 -6 -11 -14 0 -8 -4 -18 -10 -21 -6 -4 -7 1 -4 12 4
13 1 12 -13 -5 -10 -13 -28 -24 -38 -26 -11 -2 -19 -6 -17 -10 2 -4 -6 -16
-17 -25 -11 -10 -17 -22 -13 -26 4 -4 -4 -4 -18 0 -24 7 -24 7 -5 -9 19 -15
19 -16 1 -9 -15 5 -18 3 -13 -10 6 -15 4 -16 -14 -6 -15 8 -19 8 -15 0 4 -6 3
-11 -3 -11 -5 0 -13 -9 -16 -20 -5 -16 -10 -18 -26 -10 -11 6 -19 7 -18 3 4
-23 -2 -43 -11 -38 -5 3 -10 1 -10 -5 0 -6 -4 -8 -10 -5 -5 3 -10 1 -10 -5 0
-6 -4 -8 -10 -5 -5 3 -10 1 -10 -5 0 -6 -4 -9 -9 -5 -5 3 -12 1 -16 -5 -3 -5
-1 -10 4 -10 6 0 11 -5 11 -12 0 -6 -3 -8 -7 -5 -3 4 -13 1 -21 -6 -13 -10
-14 -9 -7 3 5 8 -5 1 -23 -17 -18 -17 -32 -36 -32 -42 0 -6 -5 -11 -11 -11 -5
0 -7 5 -3 12 4 7 3 8 -5 4 -6 -4 -10 -10 -7 -14 2 -4 -5 -16 -16 -27 -13 -13
-18 -15 -15 -5 2 8 2 12 0 7 -3 -4 -8 -5 -12 -2 -5 2 -7 -7 -5 -21 2 -22 0
-23 -14 -12 -13 11 -14 11 -7 -1 6 -11 4 -13 -10 -7 -14 5 -16 4 -6 -8 9 -11
7 -15 -10 -19 -12 -3 -18 -10 -14 -17 4 -7 0 -10 -11 -8 -13 2 -18 -2 -16 -14
1 -9 -3 -20 -9 -24 -7 -4 -9 -3 -6 3 3 5 0 10 -7 10 -7 0 -13 -7 -12 -16 1 -9
-6 -16 -14 -16 -8 -1 -14 -7 -12 -14 1 -7 -7 -15 -19 -18 -16 -4 -17 -8 -7
-14 10 -7 9 -9 -5 -9 -9 0 -16 -5 -15 -12 2 -7 -4 -12 -12 -13 -8 -1 -14 -6
-12 -13 3 -17 -9 -15 -24 6 -13 16 -14 16 -8 -2 6 -16 4 -17 -13 -8 -11 6 -24
8 -28 4 -5 -4 -4 -1 0 7 6 11 4 13 -8 8 -11 -4 -14 -2 -10 9 3 9 0 14 -8 12
-8 -2 -13 3 -11 11 3 12 1 12 -14 0 -16 -13 -16 -12 -5 9 6 12 8 22 4 21 -25
-4 -53 2 -48 11 3 6 -1 7 -9 4 -9 -3 -16 -1 -16 5 0 6 -7 8 -17 4 -11 -4 -14
-3 -9 5 4 7 1 12 -9 12 -10 0 -13 5 -9 13 6 9 5 9 -7 0 -11 -9 -19 -9 -26 -2
-8 8 -13 8 -17 0 -4 -7 -15 -7 -31 -1 -20 8 -23 6 -18 -7 5 -12 3 -14 -6 -8
-8 4 -17 2 -22 -6 -5 -8 -9 -9 -9 -3 0 11 -46 11 -57 0 -4 -3 -12 -1 -20 5 -7
6 -13 7 -13 2 0 -10 -40 -10 -57 0 -7 4 -15 2 -19 -4 -5 -8 -3 -9 6 -4 8 5 11
3 8 -6 -3 -8 -16 -14 -31 -13 -19 1 -24 -3 -19 -14 4 -11 1 -14 -11 -9 -8 3
-21 -1 -27 -8 -7 -8 -17 -12 -22 -9 -6 4 -5 -3 1 -15 10 -17 9 -21 -4 -21 -8
0 -16 -4 -16 -10 -1 -5 -3 -14 -4 -20 -1 -5 -3 -14 -4 -20 0 -5 -8 -10 -17
-10 -8 0 -12 -5 -9 -11 4 -6 0 -16 -10 -22 -9 -7 -18 -21 -19 -32 -2 -11 -9
-19 -15 -17 -9 2 -9 -3 -1 -18 8 -16 8 -20 -2 -18 -7 2 -13 -4 -13 -12 0 -8
-6 -19 -13 -23 -7 -5 -10 -12 -7 -17 6 -10 -14 -50 -30 -62 -6 -5 -4 -8 4 -8
11 0 10 -4 -4 -13 -11 -9 -15 -19 -10 -27 6 -9 4 -12 -6 -8 -9 4 -15 -2 -16
-18 -5 -53 -6 -59 -16 -71 -6 -9 -6 -13 3 -13 9 0 10 -3 1 -13 -6 -8 -8 -17
-4 -20 3 -4 0 -7 -8 -7 -11 0 -11 -2 1 -10 12 -7 12 -10 1 -10 -8 0 -11 -6 -7
-16 4 -10 2 -13 -6 -8 -7 5 -9 0 -6 -14 4 -16 2 -22 -9 -22 -12 0 -13 -3 -4
-14 9 -11 10 -20 1 -36 -6 -11 -8 -26 -4 -32 5 -7 3 -8 -6 -3 -9 5 -10 2 -6
-12 3 -10 -1 -28 -9 -39 -19 -25 -22 -240 -3 -228 8 5 9 0 6 -14 -4 -12 -2
-22 4 -22 6 0 8 -9 5 -20 -4 -14 0 -20 11 -20 14 0 14 -2 3 -9 -11 -7 -10 -11
5 -20 14 -8 15 -11 4 -11 -13 -1 -13 -2 1 -13 16 -12 19 -18 19 -38 0 -5 4 -7
10 -4 6 4 7 -1 3 -11 -5 -13 -3 -15 8 -9 12 8 12 6 1 -8 -12 -14 -11 -16 6
-12 15 3 18 -1 14 -21 -3 -18 0 -24 9 -22 8 2 14 -5 14 -14 0 -9 4 -20 9 -25
5 -4 6 -3 2 5 -4 7 -1 12 9 12 9 0 13 -4 10 -10 -3 -5 1 -10 9 -10 9 0 16 -6
16 -13 0 -8 11 -12 30 -11 20 1 30 -3 30 -12 0 -8 5 -14 11 -14 5 0 7 4 4 10
-10 16 0 12 25 -10 13 -12 30 -18 38 -15 10 4 13 0 9 -15 -3 -11 -2 -20 3 -20
8 0 5 -43 -5 -59 -3 -6 -1 -11 5 -11 7 0 8 -6 2 -16 -5 -9 -6 -32 -2 -50 5
-21 4 -34 -2 -34 -7 0 -7 -4 0 -13 6 -7 7 -19 3 -26 -5 -7 -5 -28 -1 -47 5
-21 4 -34 -2 -34 -7 0 -7 -4 0 -13 6 -7 7 -19 3 -26 -5 -7 -5 -28 -1 -47 5
-23 4 -34 -3 -34 -8 0 -7 -4 1 -12 7 -7 8 -17 2 -29 -7 -12 -6 -20 0 -24 6 -4
8 -11 5 -16 -4 -5 -2 -9 4 -9 6 0 8 -7 5 -15 -4 -9 0 -15 7 -15 12 0 12 -2 0
-9 -9 -6 -10 -11 -2 -15 8 -5 8 -13 1 -27 -8 -14 -7 -19 1 -19 6 0 8 -7 5 -16
-3 -8 -2 -13 3 -10 5 3 12 -1 15 -10 3 -8 2 -12 -4 -9 -13 8 -13 -1 0 -26 8
-13 7 -19 0 -19 -8 0 -8 -6 0 -20 8 -15 8 -20 -2 -20 -9 0 -9 -3 0 -12 7 -7 8
-17 1 -30 -7 -13 -6 -18 2 -18 7 0 9 -3 6 -7 -4 -3 -1 -13 6 -21 10 -13 9 -14
-3 -7 -8 4 -5 -2 8 -14 12 -12 22 -27 21 -34 0 -9 -2 -9 -6 1 -2 6 -9 9 -15 6
-5 -3 0 -13 11 -21 12 -8 19 -18 16 -23 -3 -5 -1 -11 4 -15 6 -3 7 -13 4 -21
-3 -9 0 -20 8 -25 12 -7 12 -9 -1 -9 -13 0 -13 -1 0 -10 13 -8 13 -10 1 -10
-11 0 -9 -4 5 -15 15 -11 16 -15 4 -15 -8 -1 -4 -6 10 -12 15 -6 20 -12 13
-15 -10 -3 -10 -10 -2 -24 5 -11 7 -25 3 -32 -6 -8 -3 -8 8 1 14 11 16 10 11
-7 -3 -13 -1 -21 6 -21 7 0 10 -4 6 -9 -3 -5 -1 -13 5 -16 8 -5 7 -11 -1 -21
-9 -11 -8 -14 6 -14 15 0 16 -2 4 -17 -8 -9 -9 -14 -3 -10 6 3 16 -5 23 -20
11 -25 11 -25 -5 -12 -15 12 -15 10 1 -13 11 -15 29 -32 40 -38 11 -6 13 -9 4
-6 -13 3 -15 -1 -12 -15 3 -11 9 -22 14 -25 5 -3 9 -16 9 -29 0 -15 7 -26 20
-30 11 -4 18 -10 15 -15 -3 -4 2 -10 10 -14 8 -3 15 -15 15 -26 0 -12 4 -19 9
-15 6 3 8 -4 6 -15 -2 -12 1 -20 10 -20 8 0 17 -5 21 -11 4 -8 -1 -9 -17 -5
-22 7 -22 6 4 -11 23 -15 33 -37 28 -66 -1 -5 3 -6 9 -2 6 3 8 10 6 14 -3 4 1
8 8 8 8 0 12 -10 10 -24 -1 -15 3 -23 13 -23 9 0 13 -6 10 -15 -4 -8 -1 -17 5
-21 7 -5 8 -2 3 6 -5 9 -4 11 3 6 7 -4 12 -16 12 -27 0 -10 5 -19 11 -19 5 0
7 -4 4 -10 -3 -5 1 -22 9 -38 8 -16 13 -32 10 -35 -3 -3 5 -4 19 -3 17 2 24
-2 23 -13 -1 -9 6 -15 15 -15 11 1 15 -5 12 -17 -4 -13 0 -19 11 -19 10 0 13
-5 9 -17 -5 -12 -2 -15 9 -10 12 4 14 1 11 -14 -3 -11 0 -19 6 -19 7 0 9 5 5
12 -5 9 -2 9 9 -1 18 -15 23 -26 7 -16 -6 3 -10 1 -10 -4 0 -10 14 -15 34 -12
5 1 6 -6 2 -15 -5 -13 -2 -15 15 -11 11 3 18 3 15 0 -3 -4 0 -13 7 -22 11 -14
10 -15 -7 -1 -18 14 -19 14 -5 -8 8 -12 15 -18 17 -12 6 17 20 11 27 -10 3
-11 11 -20 16 -20 6 0 8 4 5 8 -3 5 1 9 8 9 8 0 11 -8 9 -18 -3 -9 1 -20 8
-24 7 -5 10 -4 6 2 -3 5 0 10 8 10 8 0 14 -3 13 -6 -2 -22 4 -32 16 -28 10 4
12 0 9 -14 -4 -14 0 -19 16 -19 11 0 21 -5 21 -11 0 -5 -6 -7 -12 -3 -9 5 -8
2 1 -9 10 -13 17 -15 27 -6 14 11 15 10 18 -11 2 -18 54 -59 78 -62 30 -4 48
-16 48 -31 0 -7 -4 -6 -10 3 -5 8 -10 10 -10 4 0 -6 12 -21 27 -35 14 -13 23
-18 19 -12 -4 7 -3 13 2 13 6 0 12 -6 15 -14 3 -8 16 -20 28 -26 17 -10 20 -9
14 2 -7 11 -5 11 6 0 12 -11 12 -14 -1 -23 -11 -7 -8 -8 12 -5 21 4 26 1 21
-11 -4 -10 -2 -14 4 -10 6 4 14 1 16 -5 4 -9 6 -9 6 2 1 10 6 7 17 -8 9 -13
22 -21 30 -18 8 3 17 -1 20 -9 4 -8 16 -15 28 -15 12 0 28 -6 35 -12 11 -11
12 -10 6 2 -8 13 -7 13 11 0 10 -8 25 -22 32 -30 8 -8 11 -10 8 -3 -4 6 -1 15
5 19 7 4 9 3 6 -2 -3 -6 -2 -16 4 -24 7 -13 9 -13 9 0 0 13 1 13 10 0 6 -9 5
-17 -2 -21 -5 -4 2 -6 17 -6 15 0 30 -5 34 -10 7 -11 46 -33 58 -33 4 0 1 5
-7 10 -8 5 -10 10 -4 10 6 0 17 -7 24 -15 7 -8 16 -12 21 -9 5 3 9 0 9 -7 0
-6 8 -9 20 -6 11 3 20 1 20 -5 0 -5 5 -6 10 -3 6 3 10 0 10 -7 0 -9 3 -9 10 2
8 13 10 12 10 -3 0 -10 5 -15 10 -12 6 3 10 1 10 -6 0 -8 5 -7 17 2 11 10 14
10 9 2 -4 -8 -1 -13 8 -13 9 0 16 -5 16 -11 0 -8 4 -8 14 0 10 8 16 9 21 1 3
-5 22 -10 41 -10 26 0 33 -3 28 -13 -5 -7 0 -6 11 3 11 9 16 10 11 3 -7 -13
21 -18 68 -13 12 1 16 -2 11 -11 -5 -8 -4 -10 3 -5 6 4 20 2 31 -4 14 -7 22
-7 26 0 5 8 11 7 21 -1 8 -6 14 -8 14 -3 0 5 5 2 10 -6 9 -13 10 -13 10 0 0 9
3 11 8 5 10 -14 74 -36 66 -23 -4 5 5 3 19 -7 14 -9 27 -12 30 -8 7 10 87 4
87 -6 0 -4 10 -7 23 -6 12 1 25 -3 29 -9 5 -7 8 -4 8 7 0 12 4 16 13 10 17
-11 38 -13 32 -3 -3 4 11 8 30 7 19 -1 35 -5 35 -10 0 -6 5 -6 13 -1 13 10 71
9 132 -1 22 -4 49 -7 60 -6 11 1 26 3 33 3 6 1 12 4 12 8 0 4 27 6 60 6 39 -1
61 3 64 11 4 10 14 9 46 -2 22 -8 38 -11 35 -6 -2 5 2 11 10 15 8 3 15 1 15
-5 0 -6 5 -7 11 -4 5 4 38 9 72 11 110 6 137 12 190 40 15 8 27 12 27 7 0 -4
4 -3 8 4 4 6 19 14 34 17 14 2 39 11 56 20 16 8 32 12 36 9 3 -4 6 0 6 7 0 9
3 11 10 4 11 -11 92 -6 85 6 -10 17 8 39 36 45 16 4 29 11 29 17 0 7 5 6 14
-1 10 -8 16 -9 21 -1 3 5 21 10 40 10 19 0 37 5 41 12 5 7 3 8 -7 3 -12 -8
-12 -6 0 8 10 13 17 14 33 6 15 -8 19 -8 14 0 -4 6 -2 11 3 11 18 0 26 3 39
17 8 7 18 10 24 7 6 -4 9 -3 6 2 -2 5 6 19 19 31 13 12 23 18 23 12 0 -6 5 -7
10 -4 6 4 7 11 4 17 -5 7 -1 9 9 5 11 -4 15 -1 12 13 -2 10 4 25 13 32 12 10
14 10 8 1 -10 -18 9 -16 27 2 8 8 17 11 21 8 3 -4 13 2 22 13 8 10 13 13 9 7
-4 -9 -1 -11 9 -7 9 3 14 9 12 13 -2 3 7 11 20 18 18 8 22 8 17 0 -4 -7 1 -6
10 2 9 7 23 11 30 8 7 -3 19 4 25 14 8 12 9 19 2 19 -6 0 -5 6 2 14 7 8 18 11
23 8 6 -3 4 1 -2 9 -15 19 2 40 25 32 11 -5 13 -3 7 7 -6 10 -3 12 13 8 14 -4
19 -2 16 7 -3 7 0 16 7 21 8 5 10 3 4 -5 -5 -9 -1 -9 14 1 12 7 21 22 21 33 0
12 3 16 8 9 5 -7 14 -5 27 9 19 19 19 20 1 13 -16 -5 -17 -4 -6 9 7 8 17 12
23 8 6 -4 8 0 4 11 -5 12 0 19 16 26 12 5 16 9 9 9 -7 1 -10 6 -7 12 4 6 10 8
13 5 9 -10 34 33 26 47 -5 8 -2 7 9 -2 15 -12 17 -12 10 4 -5 15 -3 17 10 12
14 -5 16 -3 8 11 -8 15 -6 18 12 18 15 -1 22 4 21 17 -1 10 0 16 4 13 3 -3 11
2 19 12 8 9 12 11 8 5 -3 -7 -1 -13 4 -13 6 0 11 7 11 15 0 8 3 14 8 14 18 -3
32 2 32 12 0 5 -5 7 -12 3 -7 -4 -8 -3 -4 5 6 9 11 9 21 1 11 -10 13 -8 10 9
-2 12 0 19 5 16 13 -8 63 62 54 76 -5 8 -3 9 6 4 10 -6 12 -4 6 10 -6 16 -4
16 11 4 9 -8 14 -9 10 -2 -4 6 -3 14 3 18 6 4 7 12 3 18 -4 7 1 6 10 -2 15
-12 17 -12 11 3 -3 9 -1 16 6 16 6 0 10 10 8 23 -2 17 1 21 16 19 14 -3 17 1
13 12 -4 11 -1 16 11 16 15 0 15 2 2 10 -11 7 -11 10 -2 10 7 0 10 4 7 10 -3
6 1 7 10 4 9 -4 15 -3 14 2 -4 22 2 45 10 40 5 -4 7 4 3 16 -3 14 -2 19 6 14
12 -7 16 5 13 31 -1 8 5 10 14 7 11 -5 14 -2 9 10 -3 9 -1 16 4 16 6 0 9 9 7
21 -3 15 0 19 11 15 9 -3 12 -1 9 4 -3 6 0 10 7 10 9 0 9 3 -2 10 -9 6 -10 10
-3 10 6 0 10 9 8 19 -2 14 1 18 10 15 10 -4 13 0 10 15 -2 11 0 23 5 26 5 3 7
14 5 25 -2 13 0 18 7 14 6 -4 9 -1 6 7 -3 8 2 20 9 28 12 11 12 15 1 22 -11 7
-11 9 0 9 7 0 10 5 7 10 -3 6 -1 10 5 10 6 0 8 5 5 10 -3 6 0 10 7 10 9 0 9 3
-2 10 -13 8 -12 10 3 10 10 0 16 4 12 9 -3 5 0 13 6 17 8 4 7 9 -2 15 -11 7
-10 9 3 9 11 0 15 5 12 15 -4 8 0 23 7 32 12 14 12 16 -1 8 -12 -6 -13 -5 -2
6 6 7 12 21 12 32 0 12 4 16 13 11 7 -5 6 0 -3 11 -9 11 -10 16 -2 11 8 -5 12
-1 12 13 0 11 5 23 10 26 8 5 7 11 -1 21 -9 11 -8 14 4 14 16 0 17 16 4 38 -5
6 -4 12 2 12 6 0 8 6 5 14 -3 8 0 17 7 22 8 5 10 3 4 -6 -5 -9 -4 -11 4 -6 9
6 9 11 1 21 -7 9 -6 16 5 25 13 11 13 15 3 21 -10 7 -10 9 0 9 6 0 12 11 12
24 0 14 5 28 11 32 8 4 7 9 -2 15 -11 6 -11 9 1 14 12 4 15 30 14 140 -1 80 2
135 8 135 5 0 8 46 7 110 -1 61 1 113 4 116 3 4 2 17 -3 30 -5 13 -6 25 -2 28
4 2 5 54 2 116 -4 93 -2 113 10 121 11 6 11 8 2 9 -7 0 -10 5 -7 10 3 6 -5 14
-19 20 -22 8 -26 16 -26 50 0 24 -5 40 -12 40 -9 0 -9 3 -1 11 9 9 8 15 -2 25
-7 8 -11 23 -8 35 5 17 3 20 -8 14 -12 -8 -12 -6 0 8 9 12 10 17 2 17 -7 0
-11 10 -9 23 2 12 -2 21 -8 20 -6 -1 -11 4 -11 12 0 8 5 11 11 8 6 -4 5 0 -1
9 -7 8 -14 27 -15 42 -1 14 -6 26 -10 26 -4 0 -5 7 -2 15 4 8 1 15 -7 15 -7 0
-9 3 -6 7 4 3 1 13 -6 21 -8 11 -8 13 0 9 8 -5 8 -1 0 18 -7 14 -16 25 -22 25
-5 0 -3 5 5 10 10 6 11 10 3 10 -7 0 -13 9 -13 21 0 13 -4 18 -12 13 -9 -5 -9
-2 1 9 9 11 10 17 2 17 -6 0 -11 7 -11 16 0 8 -4 13 -9 10 -5 -3 -8 6 -8 19 0
14 -10 34 -22 44 -21 18 -30 37 -12 26 5 -3 13 -1 16 5 4 6 3 10 -2 9 -13 -3
-43 12 -43 23 0 5 5 6 11 3 6 -4 5 2 -2 13 -7 12 -17 18 -21 16 -5 -3 -7 -2
-6 3 1 4 -4 19 -11 32 -11 19 -11 22 1 17 7 -4 3 1 -9 10 -13 9 -23 22 -23 28
0 6 5 4 10 -4 5 -8 10 -10 10 -5 0 21 -18 37 -31 30 -8 -5 -11 -5 -7 0 4 4 2
15 -5 23 -10 13 -9 15 3 8 9 -4 8 -2 -2 7 -10 8 -15 17 -11 20 3 4 -1 7 -10 7
-20 0 -23 16 -5 24 7 3 4 4 -7 3 -11 -1 -20 4 -21 11 -1 6 -2 20 -3 30 -1 15
-3 15 -11 2 -8 -12 -10 -11 -10 8 0 12 -5 22 -11 22 -5 0 -7 5 -4 10 3 6 -1
10 -9 10 -18 0 -21 16 -6 23 6 3 5 4 -2 3 -14 -3 -48 29 -48 45 0 7 -9 9 -21
6 -16 -4 -18 -3 -8 9 9 11 8 14 -4 14 -9 0 -19 5 -23 12 -5 7 -3 8 6 3 9 -5
11 -4 6 4 -4 7 -17 11 -29 9 -14 -2 -22 2 -22 12 0 9 -15 30 -32 48 -18 17
-33 36 -33 42 0 5 -7 10 -16 10 -10 0 -14 5 -10 16 3 8 2 12 -4 9 -6 -3 -10
-1 -10 4 0 6 -5 11 -11 11 -5 0 -7 -4 -4 -10 10 -16 -1 -11 -16 7 -10 11 -10
14 -1 9 6 -4 12 -2 12 3 0 6 -5 11 -11 11 -5 0 -7 6 -3 13 6 9 5 9 -8 -1 -13
-10 -18 -9 -29 5 -9 11 -10 14 -1 9 6 -4 12 -2 12 3 0 6 -5 11 -11 11 -5 0 -7
6 -3 13 5 8 2 8 -9 -2 -15 -12 -17 -11 -17 8 0 12 -4 19 -10 16 -5 -3 -10 1
-10 9 0 9 -7 16 -16 16 -8 0 -12 5 -9 10 3 6 -3 10 -14 10 -12 0 -21 5 -21 11
0 5 -4 7 -10 4 -5 -3 -10 1 -10 9 0 9 -5 16 -11 16 -5 0 -7 6 -3 13 5 7 0 6
-11 -3 -11 -9 -16 -10 -11 -2 4 7 1 12 -8 12 -9 0 -16 5 -16 10 0 6 -8 10 -18
10 -10 0 -25 11 -32 25 -7 14 -18 25 -23 25 -6 0 -2 -10 9 -22 17 -21 17 -21
-8 1 -15 13 -24 29 -21 35 4 6 -2 4 -12 -4 -17 -14 -18 -14 -6 8 6 12 8 22 4
21 -24 -5 -73 16 -79 33 -3 11 -8 17 -12 14 -3 -3 -13 1 -23 10 -10 9 -25 14
-33 11 -10 -4 -14 0 -11 12 3 14 -1 17 -16 14 -13 -4 -19 0 -19 11 0 9 -4 16
-10 16 -5 0 -6 -8 -3 -17 6 -17 6 -17 -10 -1 -9 9 -17 23 -17 30 0 8 -3 9 -8
3 -11 -16 -32 -16 -26 -1 3 8 0 17 -7 22 -8 5 -10 3 -5 -7 4 -8 1 -6 -7 4 -9
10 -19 19 -24 20 -4 1 -7 6 -5 11 2 5 -4 4 -12 -3 -13 -11 -17 -11 -22 2 -3 9
-13 13 -25 10 -14 -4 -19 0 -19 13 0 16 -2 17 -10 4 -6 -10 -10 -11 -10 -2 0
6 -7 12 -15 12 -9 0 -12 6 -9 18 5 16 5 16 -6 0 -6 -10 -16 -18 -23 -18 -7 0
-6 4 3 10 12 8 11 10 -7 10 -12 0 -24 6 -26 13 -4 8 -6 8 -6 0 -1 -8 -10 -7
-31 3 -16 9 -35 12 -41 8 -8 -5 -9 -3 -4 5 5 9 0 12 -16 10 -13 -2 -30 0 -38
5 -8 5 -17 3 -23 -5 -8 -11 -9 -10 -5 3 6 17 -11 28 -45 28 -23 0 -50 24 -40
35 4 5 0 4 -8 0 -18 -11 -63 -13 -70 -3 -3 4 -24 10 -45 14 -22 3 -43 8 -47
11 -5 2 -8 -2 -8 -9 0 -8 -5 -6 -11 5 -6 9 -15 14 -21 11 -6 -4 -14 0 -19 7
-7 11 -9 11 -9 1 0 -9 -5 -10 -19 -3 -10 6 -21 7 -25 4 -3 -3 -6 -1 -6 5 0 6
-7 9 -15 6 -8 -4 -23 0 -32 7 -9 8 -19 12 -22 11 -32 -19 -41 -22 -41 -12 0 7
-6 8 -19 1 -14 -8 -22 -7 -32 5 -10 12 -14 12 -20 2 -6 -9 -9 -9 -14 4 -5 12
-13 14 -40 8 -18 -4 -39 -4 -46 1 -7 4 -19 3 -25 -2 -8 -7 -14 -7 -18 0 -4 6
-13 8 -21 4 -9 -3 -22 0 -30 7 -8 7 -23 9 -32 6 -10 -4 -14 -4 -10 0 4 4 -3
12 -16 19 -14 7 -24 8 -29 1 -4 -6 -12 -5 -21 3 -11 8 -17 9 -22 1 -3 -6 -12
-7 -18 -3 -19 12 -42 10 -55 -4z m1493 -403 c3 -5 1 -10 -4 -10 -6 0 -11 5
-11 10 0 6 2 10 4 10 3 0 8 -4 11 -10z m-2850 -260 c-10 -11 -21 -18 -23 -15
-3 3 3 12 14 20 27 20 30 18 9 -5z m-640 -3010 c3 -5 1 -10 -4 -10 -6 0 -11 5
-11 10 0 6 2 10 4 10 3 0 8 -4 11 -10z m4165 -359 c-6 -12 -15 -21 -21 -21 -6
0 -3 7 5 16 9 8 16 20 16 26 0 6 3 9 6 6 3 -4 1 -16 -6 -27z m-3496 -447 c3
-8 2 -12 -4 -9 -6 3 -10 10 -10 16 0 14 7 11 14 -7z m83 -69 c0 -8 -4 -12 -9
-9 -5 3 -6 10 -3 15 9 13 12 11 12 -6z"/>
<path d="M4705 4340 c-3 -6 1 -7 9 -4 18 7 21 14 7 14 -6 0 -13 -4 -16 -10z"/>
<path d="M4356 781 c-3 -5 1 -11 9 -14 9 -4 12 -1 8 9 -6 16 -10 17 -17 5z"/>
</g>
</svg>
