<?xml version="1.0" encoding="utf-8"?>
<!-- Generator: Adobe Illustrator 22.0.1, SVG Export Plug-In . SVG Version: 6.00 Build 0)  -->
<svg version="1.1" id="Layer_1" xmlns="http://www.w3.org/2000/svg" xmlns:xlink="http://www.w3.org/1999/xlink" x="0px" y="0px"
	 viewBox="0 0 2496 439" style="enable-background:new 0 0 2496 439;" xml:space="preserve">
<style type="text/css">
	.st0{fill:#FFFFFF;}
</style>
<g>
	<path class="st0" d="M482,0c3,15.8,1.1,32,2.7,47.8c1.2,11.5,0,23.2,2.1,34.3c1.6,8.3,1.6,16.5,1.3,24.6
		c-0.3,8.1,2.8,15.6,2.3,23.6c-0.2,3.9-1.3,5.4-5.2,5.2c-5.2-0.3-10.3,0-15.5-0.1c-1.6,0-4,0.1-3.8-2.1c0.5-5.1-2.7-9.5-2.4-14.5
		c0.4-5.1-1.5-9.6-4.2-14.1c-1.2-2.1-2.1-5-2.5-7.4c-1.5-9.4-4.4-18.5-8.7-26.6c-4.4-8.3-9.2-16.5-15.9-23.6
		c-3.5-3.8-7.3-7.4-11.1-10.8c-6.6-5.9-13.9-10.2-23.3-11.2c-5.3-0.6-10.7-1.6-16.1-1.6c-8.1-0.1-13.4,3.6-17,11
		c-1.5,3-1.7,5.7-1.7,8.7c0,90.5,0,181,0,271.5c0,10.3,8.6,19.1,18.9,19.1c11.3,0,22.7,0.1,34-0.1c3.9-0.1,5.4,1.3,5.2,5.2
		c-0.3,4.5-0.2,9,0,13.5c0.1,3-1.3,4.3-4.2,4.1c-1.2-0.1-2.3,0-3.5,0c-59.5,0-119,0-178.5,0c-7.5,0-7.7,0-7.5-7.2
		c0.2-4.9-2.2-11.1,1.2-14.4c3.2-3.1,9.2-0.9,14-1c8-0.2,16,0,24,0c8.6,0,13-3.5,17.1-11.4c1.5-2.9,1.6-5.3,1.6-8.1
		c0-90.5-0.1-181,0.2-271.5c0-4.6-3.1-8.1-2.3-12.6c0.1-0.6-1.1-1.7-1.9-2.1c-9-4.8-18.2-5.8-28.4-3.3c-6.8,1.7-13.4,3.6-18.7,7.8
		c-6.6,5.4-14.5,8.8-19,17.5c-3.2,6.1-7.5,12.1-11.2,18.3c-5.4,9-9.1,18.8-12,28.9c-2.5,8.7-5.6,17.2-8.3,25.9
		c-0.6,1.8-0.6,3.9-0.5,5.9c0.2,4-2,6-5.6,6.2c-5.3,0.3-10.7,0.1-16,0.1c-1.9,0-3.7-0.9-2.9-2.9c3.3-7.7,1-15.7,1.6-23.6
		c0.2-2.6-0.4-5.4,0.1-8c3-14.9,0.1-30.3,2.4-45c1.8-11.6,0.5-23,1.5-34.4c0.7-7.1,2.9-14.1,2.3-21.4C272,0,377,0,482,0z"/>
	<path class="st0" d="M773,439c-0.1-5.8-0.2-11.6-0.3-17.5c-0.1-2.7,1.1-3.9,3.9-3.9c3.7,0.1,7.3,0.1,11,0
		c8.5-0.2,13.1-4.6,13.1-13.1c0.1-69,0.1-138,0-207c0-9.7-6.1-15.8-16-16.2c-12-0.5-12.1-0.5-12-12.7c0.1-11.2-1.3-9.9,9.8-10
		c8-0.1,16-0.5,24,0.1c14,1,27.6-3.2,41.6-2.2c5.6,0.4,8.5,2.4,8.2,8c-0.3,7.4,3.4,14.3,2.2,21.8c-0.4,2.3,1.3,3.3,3,1.4
		c3-3.4,8-5.1,8.4-10.6c0-0.5,0.6-1.2,1.1-1.5c7.3-3.8,13-9.8,19.6-14.6c3.3-2.4,7.9-2.9,11.8-4.5c12.6-5.2,25.8-5.9,39.1-5
		c6.3,0.4,12.8,1,18.8,4.3c2.3,1.3,5.5,2.3,8.4,2.5c2.9,0.3,5.3,1.8,7.6,3.3c8.8,5.6,15.6,13.8,23.7,20.3c1.8,1.4,1.5,3.6,2.6,5.4
		c4.4,7.1,8.5,14.5,11.1,22.3c1.2,3.7,1.8,8,2.9,11.9c2.1,8.1,1.7,16.4,3.2,24.5c1.5,7.7,2.1,16.2-0.8,24.1
		c-0.7,1.8-0.6,3.6-0.6,5.4c0,8-2.7,15.5-3.8,23.2c-1.5,10.6-7.3,19.1-11.9,27.7c-5,9.3-13.3,17.2-22.4,23.7
		c-5,3.6-10.6,5.8-15.8,8.8c-3.1,1.8-6.4,1.3-9.5,2.3c-11.8,3.6-24.3,6.4-36.3,3.5c-11.5-2.8-23.9-4.6-33.4-12.8
		c-5.2-4.5-10.4-9.1-14.9-14.4c-3-3.5-6.6-6.4-9-10.8c-1.3,1.8-1,3.2-1,4.5c0,24.3,0,48.7,0,73c0,5.5,4.2,9.6,9.5,11.5
		c6,2.2,12.1,1.7,18.1,1.7c3.2,0,4.5,1.2,4.4,4.4c-0.2,5.7-0.3,11.3-0.4,17C852.3,439,812.7,439,773,439z M949.6,245.1
		c0.6-8.7-1.8-16.7-3.7-24.7c-2.8-11.9-8.6-21.4-18.2-29.1c-7.5-6.1-15.4-7.6-24.7-6.1c-9.7,1.5-17.3,6.3-24.3,12.7
		c-3,2.7-3.9,6.5-6.5,9.5c-2.3,2.6-5.1,6.6-5.1,9.6c0,4.8-2.5,8.6-3.4,12.9c-1.8,8-1.1,16.2-3,24.3c-1.4,5.7,1,12.1,1.3,18
		c0.6,12.4,4.4,23.4,9.6,34.3c5.5,11.4,14.2,19.4,26.1,23.7c11.5,4.1,21.8,2.1,31.1-6.1c7.5-6.7,12.6-14.5,15.6-24.2
		c2.9-9.5,5.3-18.8,5.5-28.8c0.1-4.6-1.9-9.6,1.7-13.8C948,253.4,950.5,248.9,949.6,245.1z"/>
	<path class="st0" d="M2496,356c-1.7,0.1-3.3,0.3-5,0.3c-35.7,0-71.3-0.1-107,0.1c-5,0-7-1.4-6.5-6.5c0.4-4,0.2-8,0.1-12
		c-0.1-3.3,1.3-4.5,4.4-4.4c4,0.1,8,0.1,12,0c10-0.3,15.3-6.5,15.4-15.2c0.4-35,0.5-70-0.2-105c-0.1-5.8-2.1-12.7-7.4-17.3
		c-1.8-1.6-1.2-4.2-2.8-6.1c-4.1-4.7-9.7-6.5-15.2-8.6c-14-5.5-26.3,0.4-37.7,7.1c-6.8,4-11.8,10.8-15.5,18.4
		c-4,8.1-5.4,16.3-6.6,25.2c-3.7,28.2-0.9,56.4-1.4,84.6c-0.1,7.8,6.4,18.6,17.3,17.1c3.8-0.5,7.7,0.1,11.5-0.1c3.6-0.2,5.2,1,5,4.8
		c-0.2,4.3-0.2,8.7,0,13c0.2,3.6-1.2,5.1-4.9,5c-5.7-0.2-11.3,0-17,0c-34,0-68,0-102,0c-6.9,0-6.6,0.1-4.8-6.5
		c0.8-3.1,0.2-6.6-0.1-9.9c-0.5-4.7,1.1-6.7,6.1-6.3c4.5,0.4,9,0.2,13.5,0c9.9-0.3,15.2-6.5,15.3-15.3c0.4-42.8,0.2-85.7,0.1-128.5
		c0-8-5.9-11.9-12.1-15.4c-5.7-3.2-11.9-2-18-2c-3.7,0-5.1-1.3-4.9-5c0.2-4.5,0.1-9,0-13.5c-0.1-2.8,0.9-4.5,4-4.3
		c18.1,1.4,36-2.6,54.1-2.1c7.7,0.2,15.4,0.6,23-0.1c5.4-0.5,8,2.6,9.1,6.3c1,3.4,2.5,7.3,2.3,10.5c-0.7,8,3.7,15.2,2.3,22.9
		c1.4,0.8,2-0.1,2.4-0.6c7-10.7,17-18.2,26.2-26.7c9.5-8.7,20.9-12.1,32.4-15.3c6.3-1.8,12.7-4.9,19.9-4c8.1,0.9,15.9,3.2,23.6,5.6
		c3.7,1.1,7.6,2.2,10.9,4.2c7.3,4.3,12.9,10.3,18,17.3c3.6,4.9,5,10.8,8.8,15.5c2,2.5,2.2,7,2.3,9.9c0.2,7.6,2.8,14.7,2.7,22.3
		c-0.4,33.3-0.4,66.7,0,100c0.1,6.9,2.4,14.3,10.1,17.5c4.3,1.7,8.9,0.4,13.3,0.8c1,0.1,2,0.2,3,0.3C2496,341.3,2496,348.7,2496,356
		z"/>
	<path class="st0" d="M0,343c8.5,0.1,14.5-5.1,18.9-11.1c4.2-5.9,6.8-13.1,9.5-19.9c2.4-5.8,3.9-12,7.2-17.5
		c3.3-5.4,4.5-11.8,7.3-17.5c4.5-9.3,7.6-19.2,11.9-28.6c5.2-11.6,9.7-23.6,14.9-35.2c5.1-11.4,9.5-23,14.5-34.4
		c1.2-2.8,1.5-5.9,4.6-6.7c4.2-1,8.8-1.3,12.8,0c3.1,1,3.6,5.3,4.9,8.1c4.8,10.4,9.1,21.1,13.4,31.7c4.5,10.8,8.2,22,13.4,32.5
		c5,10,7.9,20.9,12.9,30.8c4.8,9.5,8.3,19.5,12.5,29.2c4.5,10.3,8.8,20.6,13.4,30.8c2.4,5.3,8,8.1,13.7,7.1c6.1-1.1,6.2-0.9,4.7,5.1
		c-0.1,0.3-0.2,0.6-0.1,0.9c1.1,5.9,1.1,6-4.7,6c-24.2,0-48.3,0-72.5,0c-6.1,0-9-4.4-6.5-10c1-2.3,3.1-1.8,4.8-1.7
		c5.1,0.4,9.6-0.4,14-3.3c4.5-2.9,4.8-6.3,2.3-10.8c-3.3-5.9-6.1-12.2-8.1-18.7c-1.1-3.7-3.3-6.7-4.5-10.3c-0.5-1.5-2.2-1.3-3.5-1.3
		c-19.5,0-39,0-58.5,0c-2.9,0-7.4,5.5-7.9,10.4c-0.4,3.5-2.1,6.1-4,8.8c-1.3,1.8-1.6,11.6-0.5,13.5c4.8,7.9,11.8,11.9,21,11.5
		c4.2-0.1,4.6,2.3,4.4,5.4c-0.2,2.8,1.1,6.4-3.9,6.3c-20.8-0.2-41.6-0.2-62.4-0.3C0,350.3,0,346.7,0,343z M81.8,226.3
		c-1.6,8.3-4.5,15-7.4,21.3c-4.7,10.3-9.4,20.7-13.6,31.2c-1,2.6,0.3,2.8,2.3,2.8c12.7,0,25.3,0,38,0c3.8,0,4.6-2.4,2.8-4.8
		c-3.1-4.2-4-9.1-6.1-13.7C92.4,251.3,87.4,239.3,81.8,226.3z"/>
	<path class="st0" d="M1615.9,63c-1.6,4.8-5.3,8.7-6.3,13.9c-1.3,6.3-3.4,12.5-5.2,18.7c-1.4,4.9-3.2,9.6-5.7,14.2
		c-2.6,4.6-3.5,10-5.2,15.1c-2.1,6-2.7,12.3-5.6,18.3c-3.4,7.1-5.6,15.2-7.8,23c-2,6.8-3.7,13.9-7.8,20.3c-2.5,4-4,9.7-4.6,14.7
		c-0.8,6.3-3.6,11.7-5.6,17.4c-2.7,7.7-5.6,15.3-7.9,23.1c-1.9,6.7-4,13.5-7.1,19.9c-1.5,3.2-3.2,6.9-3.9,10.9
		c-1.1,6.6-3.5,13.2-6.1,19.5c-1.6,3.9-2.1,8.2-3.9,11.8c-2.4,4.8-3.8,9.8-5.3,14.9c-2,6.6-4.6,13.1-7.1,19.5
		c-1.8,4.8-3.7,10-5,15.2c-0.7,2.8-2.5,3.1-4.9,3c-2.8-0.1-5.7,0-8.5,0c-8.5,0-8.6,0.1-11.2-7.7c-2-6.1-3.2-12.4-7-17.9
		c-1.6-2.3-1.1-6-2.1-9.2c-2.8-8.8-4.8-18.1-8.7-26.3c-4.3-9-5.1-18.9-8.9-27.8c-2-4.7-3.6-9.7-5.7-14.4c-1.4-3.1-4.1-6.4-3-10.3
		c0.8-2.9-1.7-4.4-2.3-6.8c-1.9-8.7-5.2-17.1-8.5-25.3c-2.7-6.7-3.5-13.9-6.4-20.3c-3-6.7-3.9-14.3-8-20.6c-1.6-2.4-2.1-5.6-2.5-8.3
		c-1.2-8.6-5.2-16-7.8-24c-3.4-10.1-5.9-20.5-9.8-30.4c-2.1-5.3-3.7-10.9-5.9-16.2c-2.8-6.9-4.8-14.5-6.7-21.9c-0.5-2-1.7-3-2.6-4.6
		c-2.5,1.7-2.9,3.9-2.9,6.6c0,72.2-0.1,144.3,0.3,216.5c0,7.8,3.8,15.2,7.4,22.7c5.3,11,15.3,14.8,24.3,20.1
		c3.7,2.2,8.7,2.6,13.2,3.2c4.4,0.6,7.1,2.2,6.9,7.2c-0.2,4-0.1,8-0.1,12c0,2.5-1.1,3.7-3.6,3.6c-1,0-2,0-3,0c-36.5,0-73,0-109.5,0
		c-6.5,0-6.5,0-6.6-6.7c0-1.7,0-3.3,0-5c0.1-3.2-0.7-6.7,0.6-9.4c1.6-3.3,5.8-0.9,8.6-1.8c7.7-2.3,15.1-5.2,21-11
		c5.1-5,10.4-9.7,13.5-16.2c2.6-5.3,4.1-11.2,4.1-16.9c0.2-72.7,0.2-145.3,0.1-218c0-4.4-0.8-9.3-4-11.6c-3.1-2.2-6.9-4.6-11.4-4.6
		c-8.7,0.1-17.3-0.2-26,0.1c-4.9,0.2-7.1-1.1-6.6-6.4c0.4-4,0.4-8,0-12c-0.4-5,1.2-6.6,6.4-6.6c31.5,0.2,63,0.1,94.5,0.1
		c8.2,0,16.3,0,24.5,0c6.1,0,6.5,1.3,8.5,6.9c2.4,6.9,4.6,13.8,6.5,20.8c1.7,6.4,5.1,12.1,6.6,18.7c1.4,6.2,4.5,12.1,6.7,18.2
		c1.4,3.9,1,8,2.9,11.8c3.2,6.5,5.5,13.5,7.9,20.4c1.3,3.8,2.5,7.7,3.3,11.7c0.8,4,1.3,8,4.3,11c1.9,2,0.7,4.6,1.7,7
		c2.9,7,6.2,13.9,7.3,21.6c0.7,4.3,2.8,8.4,4.5,12.5c1.7,3.9,2.7,8.2,4.2,12.4c2.5,7,4.7,14.1,6.5,21.4c1.2,4.6,2.6,9.6,5.4,13.8
		c0.6,0.9,1.1,1.6,1.1,2.6c0.1,1.8,0,4.5,2.1,4.4c1.8,0,2.3-2.9,3-4.6c2.1-4.9,2-10.5,4.1-15.5c1.7-4.2,2.6-8.7,4.9-12.9
		c3-5.5,4.3-11.8,6.2-17.8c2.5-8,3.5-16.3,8.1-23.9c2.6-4.4,3.5-10.3,5-15.6c1.6-5.8,3.8-11.4,5.7-17.1c2.4-7.6,5.2-15,7.5-22.6
		c2.2-7.1,3.2-14.7,8.1-21c1.7-2.1,2.1-5.5,2.5-8.4c1.5-10,4.5-19.7,8.9-28.5c3.3-6.4,4.1-13.1,6-19.7c1.8-6.2,2.3-7.5,8.7-7.5
		c40.8,0,81.7,0,122.5,0c6.6,0,6.7,0,6.7,6.6c0,4.5-0.1,9,0,13.5c0.1,3.5-1.2,4.7-4.7,4.7c-9.8-0.1-19.7-0.1-29.5,0
		c-8.7,0-13.9,5.2-13.9,13.7c0,83,0,166,0,249c0,9,6.4,15.5,15.4,15.6c9.2,0.1,18.3,0.2,27.5,0c4-0.1,5.3,1.4,5.1,5.2
		c-0.2,4.2-0.3,8.3,0,12.5c0.3,4.1-1.5,5.1-5.3,5.1c-11.7-0.2-23.3-0.1-35-0.1c-39.7,0-79.3-0.1-119,0.1c-4.9,0-7.1-1.2-6.5-6.4
		c0.4-3.8,0.2-7.7,0-11.5c-0.2-3.6,1.2-5,4.9-5c9.3,0.2,18.7-0.3,28,0.2c5.1,0.3,8.5-2.2,10.7-5.7c2-3.2,3.6-6.7,3.6-11.2
		c-0.2-82.8-0.2-165.7-0.2-248.5C1615.7,66.6,1615.8,64.8,1615.9,63z"/>
	<path class="st0" d="M1844.9,365.4c-5.4-0.6-11.3,1.5-16.2-2.8c-0.4-0.4-1.3-0.3-1.9-0.2c-8,1.1-15.4-1.8-22.5-4.4
		c-6.2-2.3-12.9-3.2-18.8-6.7c-12.6-7.5-23.6-16.7-33.7-27.3c-6-6.3-10.6-13.7-14.3-21.1c-3.3-6.6-5.5-14.4-7.2-22.1
		c-1.3-5.8-1.5-11.4-1.5-17.1c0-3.6-2.7-6.3-2.1-10c1.8-12.4,1.8-25.1,6.2-37c3.4-9.4,7.6-18.6,13.3-26.7
		c9.2-13,21.2-23.1,34.8-31.8c9.3-5.9,19.6-7.6,29.1-12.1c2.7-1.3,6.3-1.6,9-1.7c11.5-0.5,22.8-6.9,33.9-3.2
		c9.4,3.1,19.1,3.1,28.5,5.8c7.5,2.1,14.7,5.4,22.4,6.8c2.9,0.5,3.4,3.6,5.7,4.5c6.5,2.5,12.5,5.8,17.7,10.5
		c6,5.4,13.4,9.5,16.8,17.5c1.3,3.2,5.6,3.9,6.8,7.6c1.6,5.1,5.5,9.3,5.7,14.9c0.1,2,2.1,2.1,2.8,3.8c2.7,7.4,3.5,15.1,4.5,22.9
		c1,7.2,1.7,14.3,1.6,21.6c-0.1,9.1-2.3,18-3.8,26.9c-1.8,10.7-7.8,19.4-11.1,29.2c-0.4,1.2-1.2,1.7-2.1,2.5
		c-2.9,2.8-6.8,4.9-7.4,9.5c-0.1,0.9-1.5,1.7-2.4,2.4c-12,9.6-23.9,19.5-38.3,25.3c-7.4,3-15.3,4.6-22.6,7.6
		c-5.5,2.2-11.8,0.1-16.4,2.4C1855.7,365.7,1850.4,364.9,1844.9,365.4z M1799.3,252.9C1799.3,252.9,1799.3,252.9,1799.3,252.9
		c0.1,7.8,0.1,15.7,0.1,23.5c-0.1,7.7,2.4,15,3.7,22.5c1.5,8.5,4.6,16,8.6,23.6c5.5,10.6,14.9,15.4,25.5,16.8
		c11.9,1.6,23.7,0.5,34.3-7.3c5.9-4.4,9.9-10,12.9-15.8c3.3-6.6,5.9-13.8,6.9-21.7c1.2-9.2,2.8-18.4,3.2-27.6
		c0.8-18.9,0-37.7-3.4-56.5c-2.1-11.4-6.3-21.3-12.8-30.3c-6.8-9.3-17-12.9-28.2-13.6c-6.4-0.4-12.8-0.2-19.1,1.9
		c-5,1.7-9.7,4.6-13.2,8c-2.2,2.1-3.8,5.7-6.4,8.1c-2,2-3,4.7-3.9,7.3c-1.9,5.4-3,11-4.7,16.3c-1.6,5.1-2.1,10.5-2.9,15.5
		C1798.2,233.1,1799.3,243.1,1799.3,252.9z"/>
	<path class="st0" d="M1989.6,253.7c0-3,0-6,0-9c0.1-2.4-0.5-4.9,2.2-6.7c1.3-0.9,0.8-2.8,0.8-4.2c0-11.8,5-21.9,9.7-32.5
		c6.6-14.7,19.3-23.8,29.3-35.3c3.9-4.5,10.3-5.5,15-9.2c8.9-6.9,20-8.1,30.3-11.4c5.1-1.6,10.9,0.1,15-2.1c7.2-4,14.5-1.8,21.7-2.5
		c2.7-0.3,5.6-0.5,7.7,2.2c0.8,1.1,2.5,0.8,3.8,0.7c6.4-0.5,12.2,1.8,18.2,3.5c5.1,1.5,10.3,3,15.5,4.2c5,1.1,9,4,13.1,6.3
		c3.6,2,6.9,4.4,10.8,5.7c5.1,1.8,7.6,6.6,11.6,9.7c2.3,1.8,3.7,4.8,7.2,4.9c0.5,0,1.2,0.7,1.3,1.2c1.7,5.9,7,9.1,10.1,13.9
		c3,4.7,5,10.1,7.1,15.2c1.9,4.6,1.1,10.1,4.6,14.2c0.4,0.4,0.3,1.3,0.4,1.9c2.6,11.1,2,22.4,2,33.6c0,3.2,0.5,6.4-0.1,9.5
		c-1.2,6.3-1.5,12.7-4.2,18.9c-1.9,4.3-1.9,9.6-3.9,14c-6.2,13.1-15.2,24.1-25.8,34c-4.6,4.3-9.6,7.7-15.2,10.4
		c-5.2,2.5-9.2,7-14.9,8.6c-8.1,2.4-16.1,5.1-24.3,7.3c-5.4,1.4-11.5,0-15.9,2.3c-6.7,3.4-13.2,2-19.7,2.4
		c-3.5,0.2-7.3,0.9-10.2-2.4c-0.7-0.7-2.6-0.7-3.8-0.5c-7.9,1-14.8-2.7-22-4.7c-5.1-1.5-10.5-1.8-15.1-5.1
		c-7.9-5.6-17.7-8.4-24.2-16.3c-1.8-2.2-5.5-2.8-7.2-5.1c-5.4-7-11.6-13.2-15.7-21.4c-3-6-5.9-12.1-9.2-17.9
		c-2.1-3.6-2.4-8-2.6-11.2C1992.8,271.5,1986.9,263.2,1989.6,253.7z M2158.6,252.9c1.2-10-2.5-19.7-2.4-29.9c0-4-1-8.7-2-12.9
		c-1.6-6.4-3.7-12.6-6.3-18.7c-4-9.2-10.9-15.9-19.1-21.1c-7.8-4.9-16.7-4.1-25.4-4.1c-8.2,0-14.8,4.2-20.9,8.6
		c-7.5,5.5-10.8,14.4-15.1,22.3c-3.5,6.3-2.8,14.1-4.2,21c-1.8,8.7-1.7,18.2-2.7,27.4c-1.5,13.9,2.9,27.6,2,41.5
		c-0.1,1.2-0.1,2.6,1,3.2c2.3,1.2,2.2,3.3,1.9,5.2c-0.9,6.2,1.7,11.5,4.2,16.9c5.5,12.1,12.4,22.8,26.5,26c10.6,2.4,21.5,2.8,31.3-2
		c13.7-6.7,20.7-19.4,25.1-33.4c2-6.4,3.7-13.4,3.8-20C2156.4,272.9,2159.7,263.2,2158.6,252.9z"/>
	<path class="st0" d="M533.4,205.5c5.3-8,9.3-15.5,13.1-22.8c5.8-11.3,15.4-17.7,25.1-24.3c6.1-4.2,13.4-5.8,20.5-6.6
		c8.4-0.9,17.3-1.2,24.9,2.2c7.2,3.2,14.4,6.7,19.2,14.7c5,8.3,7.1,16.3,6,25.4c-0.8,7-3.6,13.2-8,19.1c-6.8,9.1-15.7,9.8-25.6,9.3
		c-2.4-0.1-4.4-1-5.9-2.2c-7.2-5.7-15.3-10.7-14.2-22.1c0.6-6,0-12,4.4-17.1c1.6-1.8,1.4-4.7-0.5-6.9c-1.9-2.3-4.5-2.6-6.7-1.1
		c-8.7,5.8-16.8,12.1-21.8,21.9c-3.9,7.6-8.2,15.1-11.3,23c-1.3,3.3-3.1,6.3-3.4,10c-0.3,3.1-2.5,5.6-3.2,9
		c-1.8,9.7-2.3,19.5-4,29.1c-3.1,17.9-0.9,35.8-1.5,53.6c-0.2,5.9,1.8,11.8,7.9,15.1c1.6,0.9,3.2,0.8,4.8,0.8c8.3,0,16.7,0.2,25,0
		c4-0.1,5.3,1.4,5.1,5.3c-0.2,4.2-0.3,8.3,0,12.5c0.3,4.1-1.5,5.1-5.3,5.1c-23.2-0.1-46.3-0.1-69.5-0.1c-18.8,0-37.7-0.1-56.5,0.1
		c-4.9,0.1-7.1-1.1-6.6-6.4c0.4-3.6,0.2-7.3,0-11c-0.2-4.2,1.7-5.6,5.7-5.5c5,0.2,10-0.2,15,0.1c5.6,0.3,9.8-2.3,13.7-5.8
		c1.9-1.7,2.8-3.9,2.8-6.6c-0.1-40.7,0-81.3-0.1-122c0-11-9.2-20-20.3-20c-13.7,0-13.7,0-13.7-13.6c0-10.1-1-9.1,9.1-9.1
		c8.3,0,16.7-0.5,25,0.1c14.8,1,29.3-3.3,44-2.2c6.5,0.5,6.5,0.1,6.5,6.8C533.4,177,533.4,190.6,533.4,205.5z"/>
	<path class="st0" d="M743.4,243.9c0,26.3,0.4,52.6-0.2,78.9c-0.2,8.5,6.5,12.1,12.7,12.7c4.6,0.4,9.3,0.2,14,0.1
		c3.1,0,4.6,1.3,4.6,4.5c-0.1,4.3-0.1,8.7,0,13c0.2,3.9-1.6,5.3-5.4,5.3c-8.5-0.1-17,0-25.5,0c-27.8,0-55.6-0.1-83.4,0.1
		c-5,0-7-1.3-6.5-6.4c0.4-4.1,0.2-8.3,0.1-12.5c-0.1-2.7,1.1-3.9,3.9-3.9c4.2,0.1,8.3,0,12.5,0c7.9,0,11.4-3.7,13.9-10.8
		c2.4-7.2,1.7-14.3,1.7-21.4c0.1-32.3-0.2-64.6,0.3-96.9c0.1-7.1-2.7-13-5-19c-2-5.3-8.4-4.9-13.2-6c-2.9-0.6-6-0.3-9-0.1
		c-4.1,0.3-5.3-1.5-5.1-5.3c0.2-3.8,0.3-7.7,0-11.5c-0.5-5,1.7-6.1,6.3-6.1c15,0.2,30.1,1,44.9-0.2c10.7-0.9,21.3-1.4,32-1.8
		c5-0.2,6.6,1.2,6.6,6.4C743.2,189.9,743.4,216.9,743.4,243.9z"/>
	<path class="st0" d="M1132.9,356.3c-6.8,0-13.7-0.2-20.5,0.1c-3.8,0.1-4.9-1.5-4.8-5c0-3.3,1-4.7,4.6-4.8c8.5-0.2,8.5-0.3,8.5-8.8
		c0-29.8-0.2-59.6,0.2-89.5c0.1-6.6-2.5-8.7-9.2-9c-5.6-0.2-7.1-2-5.9-7.3c0.3-1.3,0.8-2.1,2.2-2.3c5-0.8,9.8-2.4,15-2.3
		c6.5,0.1,13.2,1.6,19.6-1.5c2-0.9,3.5,0.5,3.3,3.4c-1,18.3-0.2,36.6-0.4,54.9c0,1-0.2,2.2,0.8,2.7c1.2,0.6,1.8-0.7,2.4-1.3
		c2.2-2,4.4-4,6.4-6.2c4-4.6,9.3-6.1,15.1-7c4.3-0.7,8.1-1.1,12.7-0.1c10.6,2.2,17.8,10.7,19.9,21.3c3.2,15.8,0.8,31.6,1.7,47.4
		c0.2,4,1.8,5.9,5.8,5.6c3.7-0.3,5.4,0.8,5.4,5c0,4.4-2.1,4.8-5.6,4.8c-12.7-0.1-25.3-0.1-38,0c-3.7,0-5.4-1-5.3-5.1
		c0.1-3.9,1.6-4.8,5.1-4.8c4.9,0.1,7.9-3.1,7.9-8.2c0.1-11.2,0.1-22.3,0-33.5c-0.1-7-7.5-15.9-14.3-17.4c-3.7-0.8-12.8,5-14.8,8.5
		c-8.3,13.9-4.5,29.2-4.9,43.9c-0.1,3.9,3.6,6.7,7.9,6.6c4.3-0.2,4.8,2,4.9,5.5c0,3.8-1.9,4.4-5,4.3
		C1146.6,356.3,1139.7,356.3,1132.9,356.3z"/>
	<path class="st0" d="M1118.6,178.9c-0.6-6.1-0.2-13.6,4.3-19.8c3.1-4.2,4.5-9.9,10.5-12.1c3.5-1.3,5.4-5.8,9.4-7
		c4.7-1.4,9.1-3.5,14.2-3.3c9,0.3,18.1-0.5,27,2.2c1.7,0.5,3.5,1.1,4.9,2.2c5.5,4.3,11.3,8.3,16.2,13.2c2.5,2.5,4.6,6.6,4.7,10
		c0.2,8.3,3.7,16.1,1.2,25.2c-1.8,6.5-4.6,12.3-7,18.4c-0.2,0.6-0.7,1.1-1.2,1.4c-8.1,5.1-14.9,12.1-25.5,13.7
		c-6.2,0.9-12.5,1.9-18.6,1.3c-9.3-0.9-18.5-2.9-25.3-10.4c-1.3-1.5-2.8-2.9-4.4-4.1c-7.4-5.7-10.3-13.5-10.6-22.4
		C1118.6,184.9,1118.6,182.5,1118.6,178.9z M1148.4,180.9c0.3,6.8-0.5,13.5,1.7,20.3c2.5,7.6,7.1,11.6,14.5,12.2
		c5.1,0.4,9.9-1.6,12.9-6.4c4.1-6.5,4.9-14.1,5.9-21.4c0.8-6.1-0.5-12.3-1.3-18.5c-1-6.9-3.1-12.1-8.1-16.6
		c-8.2-7.5-17.4-4.1-21.7,4.5C1148.2,163.3,1147.8,172,1148.4,180.9z"/>
	<path class="st0" d="M1269.3,317.4c-7.3,0-14.7,0-22,0c-4,0-6.9-0.2-4.3,5.7c1.5,3.3,1.2,7.6,2.1,11.4c2.3,9.3,15.5,16.5,24.7,14
		c9.1-2.5,13.8-9.7,19.5-15.8c2.7-3,4.9-3.8,7.1-0.6c1.8,2.6,1.9,6.2,0.3,8.5c-4.2,5.8-8.9,11.4-15.5,14.9c-2.5,1.3-5.4,1.8-7.9,2.4
		c-10.5,2.4-20.8,2.5-31.7-0.8c-10.6-3.3-16.9-10.2-22.4-18.4c-6.6-9.9-6.5-21.6-5-32.8c0.7-5.3,3.9-10.4,7-15.4
		c4.1-6.6,10.7-9.3,15.3-14.6c1.8-2,5-2.2,6.8-2.2c6.7,0,12.7-3,20.1-1.8c11.5,1.8,19.3,7.6,26.7,15.2c2.8,2.9,4.5,6.6,5.7,10.7
		c1.3,4.7,1.5,9.2,1.8,13.9c0.3,4.3-1.1,6-5.6,5.8C1284.3,317.1,1276.8,317.3,1269.3,317.4z M1257.6,305.6
		C1257.6,305.6,1257.6,305.6,1257.6,305.6c3.5,0,7,0.2,10.5-0.1c4.3-0.4,5.7-4,3.2-7.4c-0.8-1.1-1.4-2.1-1.6-3.5
		c-0.7-5.4-4.5-9.3-9.6-9.3c-8.2-0.1-13.9,4.8-14.7,13c-0.7,6.7-0.2,7.3,6.8,7.3C1254,305.6,1255.8,305.6,1257.6,305.6z"/>
	<path class="st0" d="M708.3,118.5c-8.5-0.6-15.7-2.9-22.7-8.8c-9.5-7.9-12-17.7-11.8-28.7c0.2-15.8,11.5-28.1,27.2-30.3
		c1.2-0.2,2.2-0.4,3-1.4c1.6-2,4.2-2.2,6-1.4c9.6,4.4,21.1,5.2,27.6,15.3c1.9,2.9,3.6,5.6,3.9,9.3c0.4,4.5,2.4,8.8,2,13.5
		c-0.4,5-1.1,10.1-3.9,13.9c-5.2,7.2-10.6,14.3-20.2,16.8C715.7,117.7,712.1,118.3,708.3,118.5z"/>
	<path class="st0" d="M1057.7,180.5c0-10-0.2-17.8,0.1-25.6c0.1-2.6-0.3-3.8-3.1-3.5c-1,0.1-2,0.1-3,0c-3-0.2-6.7,1-7-4
		c-0.4-4.9,1.4-7.8,6.2-8.6c10.5-1.9,16.1-9.7,19.7-18.3c1.3-3.2,3.9-6.9,3.5-11.4c-0.3-3.5,3.3-2.2,5.4-2.4c2.6-0.3,4,0.9,4,3.7
		c-0.1,7.5,0.4,15-0.1,22.5c-0.3,5.1,1.5,6.2,6.1,5.8c5.1-0.4,10.3,0.1,15.5-0.1c4.6-0.2,4.7,2.5,4.5,5.8c-0.1,3.3,0.7,7.1-4.6,7
		c-5.8-0.1-11.7,0.1-17.5-0.1c-2.9-0.1-4.1,0.6-4,3.8c0.2,15,0,30,0.1,45c0,6.9,4.5,11.6,9.7,10.4c2.9-0.6,8.7-7.1,8.4-10.1
		c-0.4-3.7,1.8-6.6,2.5-10c0.7-3,3.9-1.5,6.1-1.7c1.9-0.2,3.7,0.9,3.1,2.9c-1.8,6.5-1.2,13.4-4.8,19.5
		c-7.4,12.7-19.4,13.8-32.1,13.1c-5-0.3-13.5-9.8-15.9-14.2C1055,199.6,1059.3,188.8,1057.7,180.5z"/>
	<path class="st0" d="M1055.7,316.5c0-8.5-0.1-17,0.1-25.5c0.1-2.8-0.7-4-3.6-3.7c-1.3,0.2-2.7,0-4,0c-7.8,0-7.7-0.1-7.5-7.8
		c0.1-3.3,1.3-4.5,4.7-5c8.8-1.3,16-5.1,19.3-14.2c1.8-4.9,5-9.3,4.2-14.9c-0.3-1.8,1-2.7,2.8-2.7c1.8,0,3.7-0.1,5.5,0
		c1.4,0.1,3.2-0.4,3.9,1.5c0.6,1.7,0.5,3.2-1.3,4.3c-1.7,1.1-1.3,2.9-1.3,4.6c-0.1,5,0.1,10-0.1,15c-0.1,4.6,1.8,6.8,6.5,6.6
		c5.8-0.1,11.7,0.1,17.5-0.1c4.5-0.1,5.1,2.5,5.1,6.1c-0.1,3.5,0.2,6.8-4.9,6.7c-6.7-0.2-13.3,0.1-20-0.1c-3-0.1-4.1,1.1-4.1,4.1
		c0.1,14.2,0,28.3,0.1,42.5c0,4.9,4.8,11.4,9.4,12.3c4.7,0.9,6.6-3.3,8.4-6.5c2.4-4.1,4.4-8.5,3.6-13.7c-0.6-3.5,2.3-3.4,4.7-3.4
		c2.4,0,4.5-0.2,4.9,3.3c0.7,6.3,0.4,13-2.7,17.9c-4.4,6.9-9.8,12.9-19.3,15c-8.4,1.9-15.4,1-22.1-2.8c-5.4-3.1-9.5-8.2-9.6-15.1
		C1055.5,332.8,1055.6,324.7,1055.7,316.5z"/>
</g>
</svg>
